<svg xmlns="http://www.w3.org/2000/svg" version="1.1" xmlns:xlink="http://www.w3.org/1999/xlink" xmlns:svgjs="http://svgjs.dev/svgjs" width="1000" height="234" viewBox="0 0 1000 234"><g transform="matrix(1,0,0,1,-0.6060606060606233,0.4287845617685946)"><svg viewBox="0 0 396 93" data-background-color="#ffffff" preserveAspectRatio="xMidYMid meet" height="234" width="1000" xmlns="http://www.w3.org/2000/svg" xmlns:xlink="http://www.w3.org/1999/xlink"><g id="tight-bounds" transform="matrix(1,0,0,1,0.2400000000000091,-0.1704143771131612)"><svg viewBox="0 0 395.52 93.34082875422632" height="93.34082875422632" width="395.52"><g><svg viewBox="0 0 653.5031692807997 154.22362311433886" height="93.34082875422632" width="395.52"><g><rect width="6.848046311949982" height="112.15249003611471" x="413.4468228061518" y="21.035566539112075" fill="#0074d9" opacity="1" stroke-width="0" stroke="transparent" fill-opacity="1" class="rect-qz-0" data-fill-palette-color="primary" rx="1%" id="qz-0" data-palette-color="#0074d9"></rect></g><g transform="matrix(1,0,0,1,0,21.314552832734243)"><svg viewBox="0 0 395.52 111.59451744887038" height="111.59451744887038" width="395.52"><g id="textblocktransform"><svg viewBox="0 0 395.52 111.59451744887038" height="111.59451744887038" width="395.52" id="textblock"><g><svg viewBox="0 0 395.52 75.93665940693585" height="75.93665940693585" width="395.52"><g transform="matrix(1,0,0,1,0,0)"><svg width="395.52" viewBox="0 -44.15 298.43 57.3" height="75.93665940693585" data-palette-color="#0074d9"><path d="M43.65-37.75L38.95-34.05 24.8-1.6 19.6 0.95 5-34.25 0-37.3 1-39.3 16.2-39.3 16.2-37.75 11.5-34.1 23.55-5.05 36.25-34.3 27.45-37.3 28.45-39.3 43.65-39.3 43.65-37.75ZM79.35 0.9L76.65 0 46.65 0 46.65-1.55 51.35-5.25 51.35-35.55 46.15-37.3 47.15-39.3 62.35-39.3 62.35-37.75 57.6-34.05 57.6-2.25 70.5-2.25 77.85-13.1 79.35-12.6 79.35 0.9ZM112.65-2L111.65 0 102.15 0 102.15-4.35 96.5 0.1Q95.5 0.5 94 0.5L94 0.5Q89.7 0.5 87.77-1.65 85.85-3.8 85.85-6.8L85.85-6.8Q85.85-8.6 87.15-10.35 88.45-12.1 90.85-13.65L90.85-13.65 102.15-13.65 102.15-16.85Q102.15-20.1 100.42-21.45 98.7-22.8 95.7-22.8L95.7-22.8Q92.6-22.8 88.1-19.05L88.1-19.05 86.6-20.95 93.8-26.65Q95.8-27.05 98.6-27.05L98.6-27.05Q103.15-27.05 105.65-24.83 108.15-22.6 108.15-18.35L108.15-18.35 108.15-3.75 112.65-2ZM95.6-3.75Q98.65-3.75 102.15-6.55L102.15-6.55 102.15-11.6 93.3-11.6Q92.65-10.8 92.37-10 92.1-9.2 92.1-8.25L92.1-8.25Q92.1-6.4 93.05-5.08 94-3.75 95.6-3.75L95.6-3.75ZM148.59-1.95L147.59 0.05 138.09 0.05 138.09-16.8Q138.09-19.55 137.24-20.65 136.39-21.75 134.19-21.75L134.19-21.75Q132.54-21.75 130.92-21.15 129.29-20.55 127.09-18.85L127.09-18.85 127.09-3.7 131.59-1.95 130.59 0.05 116.64 0.05 116.64-1.5 121.09-5 121.09-19.15 116.64-21.75 116.64-23.3 125.19-27.5 126.84-21 133.94-26.65Q134.99-27.05 136.69-27.05L136.69-27.05Q140.09-27.05 142.09-24.98 144.09-22.9 144.09-19.35L144.09-19.35 144.09-3.75 148.59-1.95ZM180.39-23.1L174.49-23.1Q175.89-21.1 175.89-18.6L175.89-18.6Q175.89-16.4 174.64-14.28 173.39-12.15 171.29-10.55 169.19-8.95 166.69-8.15L166.69-8.15Q165.34-6.8 165.34-5.3L165.34-5.3Q165.34-4.45 166.67-3.73 167.99-3 170.59-2L170.59-2Q174.14-0.6 176.07 0.58 177.99 1.75 177.99 3.45L177.99 3.45Q177.99 4.95 176.07 7.3 174.14 9.65 171.29 11.4 168.44 13.15 165.79 13.15L165.79 13.15Q162.99 13.15 159.17 12.2 155.34 11.25 152.79 10.3L152.79 10.3 152.79 2.6 154.69 2.6Q157.49 6.05 160.39 7.85 163.29 9.65 166.94 9.65L166.94 9.65Q168.29 9.65 169.42 9.1 170.54 8.55 171.17 7.73 171.79 6.9 171.79 6.15L171.79 6.15Q171.79 4.8 170.24 3.83 168.69 2.85 165.39 1.45L165.39 1.45Q162.24 0.15 160.72-0.8 159.19-1.75 159.19-3L159.19-3Q159.19-4.2 160.79-5.45 162.39-6.7 164.59-7.65L164.59-7.65Q163.79-7.5 162.94-7.5L162.94-7.5Q160.29-7.5 158.09-8.68 155.89-9.85 154.62-11.8 153.34-13.75 153.34-16.05L153.34-16.05Q153.34-18.8 155.24-21.35 157.14-23.9 160.17-25.48 163.19-27.05 166.34-27.05L166.34-27.05Q169.84-27.05 172.49-25.05L172.49-25.05 180.34-25.05 180.39-23.1ZM165.84-11.8Q168.09-11.8 169.27-12.93 170.44-14.05 170.44-16.25L170.44-16.25Q170.44-19.25 168.52-21.1 166.59-22.95 163.44-22.95L163.44-22.95Q161.24-22.95 160.07-21.88 158.89-20.8 158.89-18.6L158.89-18.6Q158.89-15.55 160.82-13.68 162.74-11.8 165.84-11.8L165.84-11.8ZM231.49 0.9L228.79 0 198.79 0 198.79-1.55 203.49-5.25 203.49-35.55 198.29-37.3 199.29-39.3 214.49-39.3 214.49-37.75 209.74-34.05 209.74-2.25 222.64-2.25 229.99-13.1 231.49-12.6 231.49 0.9ZM252.68-2L251.68 0 237.73 0 237.73-1.55 242.18-5.05 242.18-19.65 237.73-22.75 237.73-24.3 246.28-27.5 248.18-27.5 248.18-3.75 252.68-2ZM244.98-42.5Q246.48-42.5 247.46-41.4 248.43-40.3 248.43-38.65L248.43-38.65Q248.43-37.5 247.73-36.48 247.03-35.45 245.98-34.85 244.93-34.25 243.93-34.25L243.93-34.25Q242.43-34.25 241.46-35.35 240.48-36.45 240.48-38.1L240.48-38.1Q240.48-39.25 241.18-40.28 241.88-41.3 242.93-41.9 243.98-42.5 244.98-42.5L244.98-42.5ZM275.18-44.15Q276.58-44.15 278.36-43.88 280.13-43.6 280.88-43.3L280.88-43.3 280.88-35.6 278.98-35.6Q277.73-37.6 275.93-38.78 274.13-39.95 272.28-39.95L272.28-39.95Q269.98-39.95 268.81-37.9 267.63-35.85 267.63-31.9L267.63-31.9 267.63-25.05 276.63-25.05 276.63-23 267.63-23 267.63-4.15 274.63-2 273.63 0 257.18 0 257.18-1.55 261.63-5.05 261.63-23 255.68-23 255.68-25.05 261.63-25.05 261.63-29.5Q261.63-33.35 263.73-36.75 265.83-40.15 269-42.15 272.18-44.15 275.18-44.15L275.18-44.15ZM298.43-3.9L293.38 0.1Q292.23 0.5 290.58 0.5L290.58 0.5Q286.43 0.5 284.5-1.68 282.58-3.85 282.58-8.4L282.58-8.4 282.58-23 277.18-23 277.18-25.05 286.68-36.1 288.58-36.1 288.58-25.05 297.58-25.05 297.58-23 288.58-23 288.58-7.8Q288.58-3.75 292.48-3.75L292.48-3.75Q293.53-3.75 294.5-4.2 295.48-4.65 296.93-5.8L296.93-5.8 298.43-3.9Z" opacity="1" transform="matrix(1,0,0,1,0,0)" fill="#0074d9" class="wordmark-text-0" data-fill-palette-color="primary" id="text-0"></path></svg></g></svg></g><g transform="matrix(1,0,0,1,163.310208,93.86348221308764)"><svg viewBox="0 0 232.209792 17.731035235782745" height="17.731035235782745" width="232.209792"><g transform="matrix(1,0,0,1,0,0)"><svg width="232.209792" viewBox="2 -35.35 469.44 35.85" height="17.731035235782745" data-palette-color="#3d9970"><path d="M18.35 0L2.2 0Q2 0 2-0.25L2-0.25 2.05-34.6Q2.05-34.8 2.25-34.8L2.25-34.8 18.3-34.8Q18.5-34.8 18.5-34.55L18.5-34.55 18.5-28.95Q18.5-28.75 18.3-28.75L18.3-28.75 8.05-28.75 8.05-20.95 18.3-20.95Q18.5-20.95 18.5-20.75L18.5-20.75 18.55-15.1Q18.55-14.9 18.35-14.9L18.35-14.9 8.05-14.9 8.05-6.15 18.35-6.15Q18.55-6.15 18.55-5.9L18.55-5.9 18.55-0.2Q18.55 0 18.35 0L18.35 0ZM28.85 0L23.25 0Q23 0 23-0.25L23-0.25 23.1-34.6Q23.1-34.8 23.3-34.8L23.3-34.8 39.3-34.8Q39.55-34.8 39.55-34.6L39.55-34.6 39.55-28.95Q39.55-28.75 39.35-28.75L39.35-28.75 29.1-28.75 29.1-21 39.35-21Q39.55-21 39.55-20.75L39.55-20.75 39.6-15.1Q39.6-14.9 39.35-14.9L39.35-14.9 29.1-14.9 29.1-0.25Q29.1 0 28.85 0L28.85 0ZM50.4 0L44.8 0Q44.55 0 44.55-0.25L44.55-0.25 44.65-34.6Q44.65-34.8 44.84-34.8L44.84-34.8 60.84-34.8Q61.09-34.8 61.09-34.6L61.09-34.6 61.09-28.95Q61.09-28.75 60.9-28.75L60.9-28.75 50.65-28.75 50.65-21 60.9-21Q61.09-21 61.09-20.75L61.09-20.75 61.15-15.1Q61.15-14.9 60.9-14.9L60.9-14.9 50.65-14.9 50.65-0.25Q50.65 0 50.4 0L50.4 0ZM73.04 0.5L73.04 0.5Q70.34 0.5 68.12-0.88 65.89-2.25 64.54-4.53 63.19-6.8 63.19-9.55L63.19-9.55 63.24-25.4Q63.24-28.15 64.57-30.4 65.89-32.65 68.14-34 70.39-35.35 73.04-35.35L73.04-35.35Q75.74-35.35 77.94-34 80.14-32.65 81.47-30.4 82.79-28.15 82.79-25.4L82.79-25.4 82.84-9.55Q82.84-6.8 81.52-4.53 80.19-2.25 77.97-0.88 75.74 0.5 73.04 0.5ZM73.04-5.55L73.04-5.55Q74.54-5.55 75.67-6.78 76.79-8 76.79-9.55L76.79-9.55 76.74-25.4Q76.74-27.05 75.69-28.2 74.64-29.35 73.04-29.35L73.04-29.35Q71.49-29.35 70.39-28.23 69.29-27.1 69.29-25.4L69.29-25.4 69.29-9.55Q69.29-7.9 70.39-6.73 71.49-5.55 73.04-5.55ZM92.49 0L86.84 0Q86.64 0 86.64-0.25L86.64-0.25 86.74-34.6Q86.74-34.8 86.94-34.8L86.94-34.8 97.04-34.8Q99.74-34.8 102.02-33.48 104.29-32.15 105.64-29.93 106.99-27.7 106.99-24.9L106.99-24.9Q106.99-23.05 106.44-21.58 105.89-20.1 105.14-19.07 104.39-18.05 103.79-17.55L103.79-17.55Q106.49-14.55 106.49-10.5L106.49-10.5 106.54-0.25Q106.54 0 106.29 0L106.29 0 100.64 0Q100.44 0 100.44-0.15L100.44-0.15 100.44-10.5Q100.44-12.3 99.17-13.63 97.89-14.95 96.04-14.95L96.04-14.95 92.74-14.95 92.69-0.25Q92.69 0 92.49 0L92.49 0ZM92.74-28.8L92.74-20.95 97.04-20.95Q98.59-20.95 99.79-22.1 100.99-23.25 100.99-24.9L100.99-24.9Q100.99-26.5 99.82-27.65 98.64-28.8 97.04-28.8L97.04-28.8 92.74-28.8ZM120.39 0L114.74 0Q114.54 0 114.54-0.25L114.54-0.25 114.54-28.75 108.04-28.75Q107.79-28.75 107.79-29L107.79-29 107.84-34.6Q107.84-34.8 108.04-34.8L108.04-34.8 127.04-34.8Q127.29-34.8 127.29-34.6L127.29-34.6 127.29-29Q127.29-28.75 127.09-28.75L127.09-28.75 120.54-28.75 120.59-0.25Q120.59 0 120.39 0L120.39 0ZM147.09 0L130.94 0Q130.74 0 130.74-0.25L130.74-0.25 130.79-34.55Q130.79-34.8 131.04-34.8L131.04-34.8 136.59-34.8Q136.84-34.8 136.84-34.55L136.84-34.55 136.79-6.15 147.09-6.15Q147.34-6.15 147.34-5.9L147.34-5.9 147.34-0.25Q147.34 0 147.09 0L147.09 0ZM166.93 0L150.78 0Q150.58 0 150.58-0.25L150.58-0.25 150.63-34.6Q150.63-34.8 150.83-34.8L150.83-34.8 166.88-34.8Q167.08-34.8 167.08-34.55L167.08-34.55 167.08-28.95Q167.08-28.75 166.88-28.75L166.88-28.75 156.63-28.75 156.63-20.95 166.88-20.95Q167.08-20.95 167.08-20.75L167.08-20.75 167.13-15.1Q167.13-14.9 166.93-14.9L166.93-14.9 156.63-14.9 156.63-6.15 166.93-6.15Q167.13-6.15 167.13-5.9L167.13-5.9 167.13-0.2Q167.13 0 166.93 0L166.93 0ZM179.78 0.5L179.78 0.5Q177.08 0.5 174.85-0.88 172.63-2.25 171.31-4.53 169.98-6.8 169.98-9.55L169.98-9.55 169.98-11.85Q169.98-12.1 170.23-12.1L170.23-12.1 175.83-12.1Q176.03-12.1 176.03-11.85L176.03-11.85 176.03-9.55Q176.03-7.9 177.13-6.73 178.23-5.55 179.78-5.55L179.78-5.55Q181.33-5.55 182.43-6.75 183.53-7.95 183.53-9.55L183.53-9.55Q183.53-11.4 181.13-12.75L181.13-12.75Q180.33-13.2 178.63-14.15 176.93-15.1 175.43-15.95L175.43-15.95Q172.68-17.55 171.35-19.98 170.03-22.4 170.03-25.45L170.03-25.45Q170.03-28.25 171.38-30.48 172.73-32.7 174.96-34 177.18-35.3 179.78-35.3L179.78-35.3Q182.43-35.3 184.66-33.98 186.88-32.65 188.21-30.43 189.53-28.2 189.53-25.45L189.53-25.45 189.53-21.35Q189.53-21.15 189.33-21.15L189.33-21.15 183.73-21.15Q183.53-21.15 183.53-21.35L183.53-21.35 183.48-25.45Q183.48-27.2 182.38-28.3 181.28-29.4 179.78-29.4L179.78-29.4Q178.23-29.4 177.13-28.23 176.03-27.05 176.03-25.45L176.03-25.45Q176.03-23.8 176.73-22.7 177.43-21.6 179.28-20.6L179.28-20.6Q179.53-20.45 180.25-20.08 180.98-19.7 181.83-19.23 182.68-18.75 183.35-18.4 184.03-18.05 184.18-17.95L184.18-17.95Q186.68-16.55 188.13-14.53 189.58-12.5 189.58-9.55L189.58-9.55Q189.58-6.7 188.25-4.42 186.93-2.15 184.71-0.83 182.48 0.5 179.78 0.5ZM201.03 0.5L201.03 0.5Q198.33 0.5 196.1-0.88 193.88-2.25 192.55-4.53 191.23-6.8 191.23-9.55L191.23-9.55 191.23-11.85Q191.23-12.1 191.48-12.1L191.48-12.1 197.08-12.1Q197.28-12.1 197.28-11.85L197.28-11.85 197.28-9.55Q197.28-7.9 198.38-6.73 199.48-5.55 201.03-5.55L201.03-5.55Q202.58-5.55 203.68-6.75 204.78-7.95 204.78-9.55L204.78-9.55Q204.78-11.4 202.38-12.75L202.38-12.75Q201.58-13.2 199.88-14.15 198.18-15.1 196.68-15.95L196.68-15.95Q193.93-17.55 192.6-19.98 191.28-22.4 191.28-25.45L191.28-25.45Q191.28-28.25 192.63-30.48 193.98-32.7 196.2-34 198.43-35.3 201.03-35.3L201.03-35.3Q203.68-35.3 205.9-33.98 208.13-32.65 209.45-30.43 210.78-28.2 210.78-25.45L210.78-25.45 210.78-21.35Q210.78-21.15 210.58-21.15L210.58-21.15 204.98-21.15Q204.78-21.15 204.78-21.35L204.78-21.35 204.73-25.45Q204.73-27.2 203.63-28.3 202.53-29.4 201.03-29.4L201.03-29.4Q199.48-29.4 198.38-28.23 197.28-27.05 197.28-25.45L197.28-25.45Q197.28-23.8 197.98-22.7 198.68-21.6 200.53-20.6L200.53-20.6Q200.78-20.45 201.5-20.08 202.23-19.7 203.08-19.23 203.93-18.75 204.6-18.4 205.28-18.05 205.43-17.95L205.43-17.95Q207.93-16.55 209.38-14.53 210.83-12.5 210.83-9.55L210.83-9.55Q210.83-6.7 209.5-4.42 208.18-2.15 205.95-0.83 203.73 0.5 201.03 0.5ZM230.87 0.5L230.87 0.5Q228.17 0.5 225.97-0.85 223.77-2.2 222.45-4.48 221.12-6.75 221.12-9.55L221.12-9.55 221.12-25.4Q221.12-28.1 222.45-30.38 223.77-32.65 226-34 228.22-35.35 230.87-35.35L230.87-35.35Q233.62-35.35 235.85-34.02 238.07-32.7 239.37-30.45 240.67-28.2 240.67-25.4L240.67-25.4 240.67-23.1Q240.67-22.9 240.42-22.9L240.42-22.9 234.82-22.9Q234.62-22.9 234.62-23.1L234.62-23.1 234.62-25Q234.62-26.9 233.55-28.15 232.47-29.4 230.87-29.4L230.87-29.4Q229.42-29.4 228.3-28.2 227.17-27 227.17-25.4L227.17-25.4 227.17-9.55Q227.17-7.9 228.27-6.73 229.37-5.55 230.87-5.55L230.87-5.55Q232.47-5.55 233.55-6.7 234.62-7.85 234.62-9.55L234.62-9.55 234.62-12 231.12-12Q230.87-12 230.87-12.25L230.87-12.25 230.87-17.85Q230.87-18.1 231.12-18.1L231.12-18.1 240.47-18.1Q240.67-18.1 240.67-17.85L240.67-17.85 240.67-9.55Q240.67-6.75 239.35-4.48 238.02-2.2 235.82-0.85 233.62 0.5 230.87 0.5ZM260.57 0L244.42 0Q244.22 0 244.22-0.25L244.22-0.25 244.27-34.55Q244.27-34.8 244.52-34.8L244.52-34.8 250.07-34.8Q250.32-34.8 250.32-34.55L250.32-34.55 250.27-6.15 260.57-6.15Q260.82-6.15 260.82-5.9L260.82-5.9 260.82-0.25Q260.82 0 260.57 0L260.57 0ZM272.62 0.5L272.62 0.5Q269.92 0.5 267.69-0.88 265.47-2.25 264.12-4.53 262.77-6.8 262.77-9.55L262.77-9.55 262.82-25.4Q262.82-28.15 264.14-30.4 265.47-32.65 267.72-34 269.97-35.35 272.62-35.35L272.62-35.35Q275.32-35.35 277.52-34 279.72-32.65 281.04-30.4 282.37-28.15 282.37-25.4L282.37-25.4 282.42-9.55Q282.42-6.8 281.09-4.53 279.77-2.25 277.54-0.88 275.32 0.5 272.62 0.5ZM272.62-5.55L272.62-5.55Q274.12-5.55 275.24-6.78 276.37-8 276.37-9.55L276.37-9.55 276.32-25.4Q276.32-27.05 275.27-28.2 274.22-29.35 272.62-29.35L272.62-29.35Q271.07-29.35 269.97-28.23 268.87-27.1 268.87-25.4L268.87-25.4 268.87-9.55Q268.87-7.9 269.97-6.73 271.07-5.55 272.62-5.55ZM295.37 0L286.42 0Q286.22 0 286.22-0.25L286.22-0.25 286.32-34.6Q286.32-34.8 286.52-34.8L286.52-34.8 296.12-34.8Q298.97-34.8 301.22-33.43 303.47-32.05 304.77-29.8 306.07-27.55 306.07-24.9L306.07-24.9Q306.07-22.75 305.09-20.9 304.12-19.05 302.77-17.9L302.77-17.9Q304.22-16.45 305.02-14.55 305.82-12.65 305.82-10.55L305.82-10.55Q305.82-7.65 304.42-5.25 303.02-2.85 300.64-1.43 298.27 0 295.37 0L295.37 0ZM292.32-28.85L292.32-21 296.12-21Q297.87-21 298.94-22.23 300.02-23.45 300.02-24.9L300.02-24.9Q300.02-26.5 298.87-27.68 297.72-28.85 296.12-28.85L296.12-28.85 292.32-28.85ZM292.32-14.95L292.27-6.1 295.37-6.1Q297.17-6.1 298.47-7.43 299.77-8.75 299.77-10.55L299.77-10.55Q299.77-12.35 298.47-13.65 297.17-14.95 295.37-14.95L295.37-14.95 292.32-14.95ZM306.71-0.25L306.71-0.25 312.91-34.6Q312.96-34.8 313.16-34.8L313.16-34.8 320.41-34.8Q320.61-34.8 320.66-34.6L320.66-34.6 326.61-0.25Q326.66 0 326.41 0L326.41 0 320.86 0Q320.66 0 320.61-0.25L320.61-0.25 320.06-3.9 313.26-3.9 312.71-0.25Q312.66 0 312.46 0L312.46 0 306.91 0Q306.71 0 306.71-0.25ZM316.51-23.3L314.26-9.25 319.06-9.25 317.01-23.3 316.71-25.15 316.51-23.3ZM346.11 0L329.96 0Q329.76 0 329.76-0.25L329.76-0.25 329.81-34.55Q329.81-34.8 330.06-34.8L330.06-34.8 335.61-34.8Q335.86-34.8 335.86-34.55L335.86-34.55 335.81-6.15 346.11-6.15Q346.36-6.15 346.36-5.9L346.36-5.9 346.36-0.25Q346.36 0 346.11 0L346.11 0ZM355.51 0L349.86 0Q349.61 0 349.61-0.25L349.61-0.25 349.66-34.6Q349.66-34.8 349.86-34.8L349.86-34.8 355.46-34.8Q355.66-34.8 355.66-34.6L355.66-34.6 355.71-0.25Q355.71 0 355.51 0L355.51 0ZM377.41 0L358.76 0Q358.51 0 358.51-0.25L358.51-0.25 358.56-5.7 370.81-29.1 359.21-29.1Q359.01-29.1 359.01-29.3L359.01-29.3 359.01-34.55Q359.01-34.8 359.21-34.8L359.21-34.8 377.31-34.8Q377.56-34.8 377.56-34.55L377.56-34.55 377.56-29.15 365.36-5.85 377.41-5.85Q377.61-5.85 377.61-5.6L377.61-5.6 377.66-0.25Q377.66 0 377.41 0L377.41 0ZM378.6-0.25L378.6-0.25 384.8-34.6Q384.85-34.8 385.05-34.8L385.05-34.8 392.3-34.8Q392.5-34.8 392.55-34.6L392.55-34.6 398.5-0.25Q398.55 0 398.3 0L398.3 0 392.75 0Q392.55 0 392.5-0.25L392.5-0.25 391.95-3.9 385.15-3.9 384.6-0.25Q384.55 0 384.35 0L384.35 0 378.8 0Q378.6 0 378.6-0.25ZM388.4-23.3L386.15-9.25 390.95-9.25 388.9-23.3 388.6-25.15 388.4-23.3ZM409.9 0L404.25 0Q404.05 0 404.05-0.25L404.05-0.25 404.05-28.75 397.55-28.75Q397.3-28.75 397.3-29L397.3-29 397.35-34.6Q397.35-34.8 397.55-34.8L397.55-34.8 416.55-34.8Q416.8-34.8 416.8-34.6L416.8-34.6 416.8-29Q416.8-28.75 416.6-28.75L416.6-28.75 410.05-28.75 410.1-0.25Q410.1 0 409.9 0L409.9 0ZM425.15 0L419.5 0Q419.25 0 419.25-0.25L419.25-0.25 419.3-34.6Q419.3-34.8 419.5-34.8L419.5-34.8 425.1-34.8Q425.3-34.8 425.3-34.6L425.3-34.6 425.35-0.25Q425.35 0 425.15 0L425.15 0ZM439 0.5L439 0.5Q436.3 0.5 434.07-0.88 431.85-2.25 430.5-4.53 429.15-6.8 429.15-9.55L429.15-9.55 429.2-25.4Q429.2-28.15 430.52-30.4 431.85-32.65 434.1-34 436.35-35.35 439-35.35L439-35.35Q441.7-35.35 443.9-34 446.1-32.65 447.42-30.4 448.75-28.15 448.75-25.4L448.75-25.4 448.8-9.55Q448.8-6.8 447.47-4.53 446.15-2.25 443.92-0.88 441.7 0.5 439 0.5ZM439-5.55L439-5.55Q440.5-5.55 441.62-6.78 442.75-8 442.75-9.55L442.75-9.55 442.7-25.4Q442.7-27.05 441.65-28.2 440.6-29.35 439-29.35L439-29.35Q437.45-29.35 436.35-28.23 435.25-27.1 435.25-25.4L435.25-25.4 435.25-9.55Q435.25-7.9 436.35-6.73 437.45-5.55 439-5.55ZM458.04 0L453.04 0Q452.64 0 452.64-0.35L452.64-0.35 452.59-34.4Q452.59-34.8 452.99-34.8L452.99-34.8 457.49-34.8 465.94-15.1 465.69-34.4Q465.69-34.8 466.14-34.8L466.14-34.8 471.09-34.8Q471.39-34.8 471.39-34.4L471.39-34.4 471.44-0.3Q471.44 0 471.19 0L471.19 0 466.79 0 458.14-18.4 458.49-0.4Q458.49 0 458.04 0L458.04 0Z" opacity="1" transform="matrix(1,0,0,1,0,0)" fill="#3d9970" class="slogan-text-1" data-fill-palette-color="secondary" id="text-1"></path></svg></g></svg></g></svg></g></svg></g><g transform="matrix(1,0,0,1,438.22169192425355,0)"><svg viewBox="0 0 215.28147735654616 154.22362311433886" height="154.22362311433886" width="215.28147735654616"><g><svg xmlns="http://www.w3.org/2000/svg" xmlns:xlink="http://www.w3.org/1999/xlink" version="1.1" x="0" y="0" viewBox="0.23428009999691668 1.7779999999999998 99.65503104908088 71.39099999999999" enable-background="new 0 0 100 75.445" xml:space="preserve" height="154.22362311433886" width="215.28147735654616" class="icon-icon-0" data-fill-palette-color="accent" id="icon-0"><g fill="#0074d9" data-fill-palette-color="accent"><path d="M69.52 26.196c0.104 1.745 0.206 3.351 0.451 4.746 1.364-1.431 2.551-3.246 3.422-5.235C72.903 25.636 71.09 25.776 69.52 26.196z" fill="#0074d9" data-fill-palette-color="accent"></path><path d="M60.898 33.421c0 1.989 1.5 1.92 1.954 1.884 1.081-0.032 2.27-0.522 3.492-1.325-0.388-1.85-0.631-4.016-0.805-6.388C62.782 28.953 60.898 31.081 60.898 33.421z" fill="#0074d9" data-fill-palette-color="accent"></path><path d="M99.763 29.503C101.242 16.194 89.562 3.89 73.682 2.022c-1.374-0.161-2.729-0.244-4.069-0.244-14.156 0-26.023 8.791-27.377 20.948C40.757 36.035 52.432 48.34 68.315 50.207c1.363 0.162 2.709 0.24 4.036 0.24 1.465 0 2.902-0.1 4.308-0.28 5.686 6.187 11.622 7.855 14.942 7.855 2.131 0 3.184-0.688 2.409-1.298-4.847-3.849-5.876-7.604-5.569-10.558C94.672 42.441 98.978 36.537 99.763 29.503zM76.682 41.234l-1.654-3.531c4.155-1.036 6.711-3.013 6.711-6.202 0-1.152-0.388-3.874-4.156-5.096-1.535 3.49-3.873 6.736-6.597 9.075 0.14 0.454 1.032 2.051 1.205 2.399l-3.596 2.305c-0.176-0.35-1.064-1.945-1.204-2.363-1.746 0.977-3.667 1.605-5.623 1.605-3.069 0-5.093-1.957-5.093-5.201 0-4.818 3.701-8.623 8.658-10.648-0.073-1.501-0.073-3.037-0.073-4.643-2.617 0.071-5.444 0.141-6.839 0.105l-0.212-4.084c1.606 0.035 4.536 0.035 7.124 0.035 0.067-1.5 0.103-3.245 0.17-4.712l4.547 0.348c-0.067 0.348-0.182 3.108-0.286 4.225 3.806-0.175 8.586-0.628 12.463-1.466l0.381 4.224c-3.837 0.697-8.865 1.047-13.052 1.187-0.036 1.222-0.071 2.409-0.071 3.562 1.465-0.35 3.597-0.559 5.235-0.455 0.14-0.523 0.245-1.048 0.278-1.57l4.296 1.082c-0.106 0.385-0.211 0.769-0.278 1.153 5.059 1.397 7.293 4.921 7.293 8.831C86.312 36.185 83.228 39.644 76.682 41.234z" fill="#0074d9" data-fill-palette-color="accent"></path></g><g fill="#0074d9" data-fill-palette-color="accent"><path d="M39.309 22.324c0.132-1.267 0.725-3.235 0.978-3.988-2.833-0.803-6.475-1.413-9.623-1.413-1.346 0-2.708 0.083-4.089 0.244C10.614 19.036-1.124 31.34 0.361 44.649c0.79 7.035 5.118 12.939 11.38 16.666 0.308 2.95-0.727 6.707-5.599 10.558-0.778 0.607 0.281 1.296 2.423 1.296 3.336 0 9.304-1.667 15.016-7.854 1.413 0.18 2.858 0.277 4.331 0.277 1.334 0 2.687-0.078 4.056-0.238 10.604-1.242 19.286-6.638 24.03-15.483C45.301 44.531 38.043 34.448 39.309 22.324zM33.68 56.265l-2.15-7.937h-8.053l-2.072 7.937h-5.864l8.522-30.062h7.271l8.405 30.062H33.68z" fill="#0074d9" data-fill-palette-color="accent"></path><path d="M27.542 30.972h-0.117c-0.391 1.877-0.899 4.339-1.33 6.099l-1.798 6.88h6.411L28.91 37.11C28.441 35.233 27.933 32.809 27.542 30.972z" fill="#0074d9" data-fill-palette-color="accent"></path></g></svg></g></svg></g></svg></g><defs></defs></svg><rect width="395.52" height="93.34082875422632" fill="none" stroke="none" visibility="hidden"></rect></g></svg></g></svg>